<mxfile host="app.diagrams.net" modified="2024-01-06T13:54:04.936Z" agent="Mozilla/5.0 (Windows NT 10.0; Win64; x64) AppleWebKit/537.36 (KHTML, like Gecko) Chrome/120.0.0.0 Safari/537.36" etag="SRsKOmbFdE3PYe6RziSN" version="22.1.17" type="device">
  <diagram name="Pagina-1" id="_XCNvDy_3eViLTRfLL9F">
    <mxGraphModel dx="1728" dy="922" grid="1" gridSize="10" guides="1" tooltips="1" connect="1" arrows="1" fold="1" page="1" pageScale="1" pageWidth="827" pageHeight="1169" math="0" shadow="0">
      <root>
        <mxCell id="0" />
        <mxCell id="1" parent="0" />
        <mxCell id="u5e5_SLm2BwDeto53vte-2" value="STM32F407" style="whiteSpace=wrap;html=1;aspect=fixed;align=left;verticalAlign=top;" vertex="1" parent="1">
          <mxGeometry x="200" y="150" width="640" height="640" as="geometry" />
        </mxCell>
        <mxCell id="u5e5_SLm2BwDeto53vte-3" value="SD card" style="whiteSpace=wrap;html=1;aspect=fixed;" vertex="1" parent="1">
          <mxGeometry x="30" y="190" width="80" height="80" as="geometry" />
        </mxCell>
        <mxCell id="u5e5_SLm2BwDeto53vte-4" value="sample data" style="rounded=0;whiteSpace=wrap;html=1;" vertex="1" parent="1">
          <mxGeometry x="30" y="250" width="80" height="30" as="geometry" />
        </mxCell>
        <mxCell id="u5e5_SLm2BwDeto53vte-5" value="" style="endArrow=classic;html=1;rounded=0;exitX=1;exitY=0.5;exitDx=0;exitDy=0;startArrow=classic;startFill=1;" edge="1" parent="1" source="u5e5_SLm2BwDeto53vte-3" target="u5e5_SLm2BwDeto53vte-7">
          <mxGeometry width="50" height="50" relative="1" as="geometry">
            <mxPoint x="390" y="590" as="sourcePoint" />
            <mxPoint x="440" y="540" as="targetPoint" />
          </mxGeometry>
        </mxCell>
        <mxCell id="u5e5_SLm2BwDeto53vte-11" value="" style="edgeStyle=orthogonalEdgeStyle;rounded=0;orthogonalLoop=1;jettySize=auto;html=1;startArrow=classic;startFill=1;" edge="1" parent="1" source="u5e5_SLm2BwDeto53vte-6" target="u5e5_SLm2BwDeto53vte-8">
          <mxGeometry relative="1" as="geometry" />
        </mxCell>
        <mxCell id="u5e5_SLm2BwDeto53vte-6" value="IMU" style="whiteSpace=wrap;html=1;aspect=fixed;" vertex="1" parent="1">
          <mxGeometry x="30" y="340" width="80" height="80" as="geometry" />
        </mxCell>
        <mxCell id="u5e5_SLm2BwDeto53vte-7" value="SDIO" style="rounded=0;whiteSpace=wrap;html=1;" vertex="1" parent="1">
          <mxGeometry x="220" y="210" width="90" height="40" as="geometry" />
        </mxCell>
        <mxCell id="u5e5_SLm2BwDeto53vte-8" value="I2C" style="rounded=0;whiteSpace=wrap;html=1;" vertex="1" parent="1">
          <mxGeometry x="220" y="360" width="90" height="40" as="geometry" />
        </mxCell>
        <mxCell id="u5e5_SLm2BwDeto53vte-9" value="I2C" style="rounded=0;whiteSpace=wrap;html=1;" vertex="1" parent="1">
          <mxGeometry x="220" y="500" width="80" height="40" as="geometry" />
        </mxCell>
        <mxCell id="u5e5_SLm2BwDeto53vte-13" style="edgeStyle=orthogonalEdgeStyle;rounded=0;orthogonalLoop=1;jettySize=auto;html=1;exitX=1;exitY=0.5;exitDx=0;exitDy=0;startArrow=classic;startFill=1;" edge="1" parent="1" source="u5e5_SLm2BwDeto53vte-10" target="u5e5_SLm2BwDeto53vte-9">
          <mxGeometry relative="1" as="geometry" />
        </mxCell>
        <mxCell id="u5e5_SLm2BwDeto53vte-10" value="DISPLAY" style="whiteSpace=wrap;html=1;aspect=fixed;" vertex="1" parent="1">
          <mxGeometry x="30" y="480" width="80" height="80" as="geometry" />
        </mxCell>
        <mxCell id="u5e5_SLm2BwDeto53vte-14" value="FATFS" style="rounded=0;whiteSpace=wrap;html=1;" vertex="1" parent="1">
          <mxGeometry x="320" y="210" width="100" height="40" as="geometry" />
        </mxCell>
        <mxCell id="u5e5_SLm2BwDeto53vte-15" value="SSD1306 DRIVER" style="rounded=0;whiteSpace=wrap;html=1;" vertex="1" parent="1">
          <mxGeometry x="314" y="500" width="100" height="40" as="geometry" />
        </mxCell>
        <mxCell id="u5e5_SLm2BwDeto53vte-16" value="FILE_HANDLER" style="rounded=0;whiteSpace=wrap;html=1;" vertex="1" parent="1">
          <mxGeometry x="430" y="210" width="130" height="40" as="geometry" />
        </mxCell>
        <mxCell id="u5e5_SLm2BwDeto53vte-17" value="MPU6050 DRIVER" style="rounded=0;whiteSpace=wrap;html=1;" vertex="1" parent="1">
          <mxGeometry x="320" y="360" width="100" height="40" as="geometry" />
        </mxCell>
        <mxCell id="u5e5_SLm2BwDeto53vte-19" value="DISPLAY_HANDLER" style="rounded=0;whiteSpace=wrap;html=1;" vertex="1" parent="1">
          <mxGeometry x="420" y="500" width="130" height="40" as="geometry" />
        </mxCell>
        <mxCell id="u5e5_SLm2BwDeto53vte-23" style="edgeStyle=orthogonalEdgeStyle;rounded=0;orthogonalLoop=1;jettySize=auto;html=1;exitX=1;exitY=0.25;exitDx=0;exitDy=0;" edge="1" parent="1" source="u5e5_SLm2BwDeto53vte-20" target="u5e5_SLm2BwDeto53vte-22">
          <mxGeometry relative="1" as="geometry" />
        </mxCell>
        <mxCell id="u5e5_SLm2BwDeto53vte-24" style="edgeStyle=orthogonalEdgeStyle;rounded=0;orthogonalLoop=1;jettySize=auto;html=1;exitX=1;exitY=0.75;exitDx=0;exitDy=0;entryX=0;entryY=0.5;entryDx=0;entryDy=0;startArrow=classic;startFill=1;endArrow=none;endFill=0;" edge="1" parent="1" source="u5e5_SLm2BwDeto53vte-20" target="u5e5_SLm2BwDeto53vte-21">
          <mxGeometry relative="1" as="geometry" />
        </mxCell>
        <mxCell id="u5e5_SLm2BwDeto53vte-20" value="IO" style="rounded=0;whiteSpace=wrap;html=1;" vertex="1" parent="1">
          <mxGeometry x="740" y="560" width="80" height="160" as="geometry" />
        </mxCell>
        <mxCell id="u5e5_SLm2BwDeto53vte-21" value="BUTTONS" style="rounded=0;whiteSpace=wrap;html=1;" vertex="1" parent="1">
          <mxGeometry x="910" y="650" width="90" height="60" as="geometry" />
        </mxCell>
        <mxCell id="u5e5_SLm2BwDeto53vte-22" value="LEDS" style="rounded=0;whiteSpace=wrap;html=1;" vertex="1" parent="1">
          <mxGeometry x="910" y="570" width="90" height="60" as="geometry" />
        </mxCell>
        <mxCell id="u5e5_SLm2BwDeto53vte-25" value="INTERRUPT&amp;nbsp; HANDLER" style="whiteSpace=wrap;html=1;aspect=fixed;" vertex="1" parent="1">
          <mxGeometry x="660" y="650" width="70" height="70" as="geometry" />
        </mxCell>
        <mxCell id="u5e5_SLm2BwDeto53vte-27" value="IO DRIVER" style="whiteSpace=wrap;html=1;aspect=fixed;" vertex="1" parent="1">
          <mxGeometry x="660" y="570" width="70" height="70" as="geometry" />
        </mxCell>
        <mxCell id="u5e5_SLm2BwDeto53vte-28" value="BUTTON HANDLER" style="rounded=0;whiteSpace=wrap;html=1;" vertex="1" parent="1">
          <mxGeometry x="530" y="655" width="120" height="60" as="geometry" />
        </mxCell>
        <mxCell id="u5e5_SLm2BwDeto53vte-30" value="USB LOGGING CONSOLE" style="rounded=0;whiteSpace=wrap;html=1;" vertex="1" parent="1">
          <mxGeometry x="910" y="180" width="90" height="60" as="geometry" />
        </mxCell>
        <mxCell id="u5e5_SLm2BwDeto53vte-31" value="UART LOGGING" style="rounded=0;whiteSpace=wrap;html=1;" vertex="1" parent="1">
          <mxGeometry x="910" y="280" width="90" height="60" as="geometry" />
        </mxCell>
        <mxCell id="u5e5_SLm2BwDeto53vte-35" style="edgeStyle=orthogonalEdgeStyle;rounded=0;orthogonalLoop=1;jettySize=auto;html=1;exitX=1;exitY=0.5;exitDx=0;exitDy=0;" edge="1" parent="1" source="u5e5_SLm2BwDeto53vte-32" target="u5e5_SLm2BwDeto53vte-31">
          <mxGeometry relative="1" as="geometry" />
        </mxCell>
        <mxCell id="u5e5_SLm2BwDeto53vte-32" value="UART" style="rounded=0;whiteSpace=wrap;html=1;" vertex="1" parent="1">
          <mxGeometry x="720" y="290" width="90" height="40" as="geometry" />
        </mxCell>
        <mxCell id="u5e5_SLm2BwDeto53vte-36" style="edgeStyle=orthogonalEdgeStyle;rounded=0;orthogonalLoop=1;jettySize=auto;html=1;exitX=1;exitY=0.5;exitDx=0;exitDy=0;entryX=0;entryY=0.5;entryDx=0;entryDy=0;" edge="1" parent="1" source="u5e5_SLm2BwDeto53vte-34" target="u5e5_SLm2BwDeto53vte-30">
          <mxGeometry relative="1" as="geometry" />
        </mxCell>
        <mxCell id="u5e5_SLm2BwDeto53vte-34" value="USB CDC" style="rounded=0;whiteSpace=wrap;html=1;" vertex="1" parent="1">
          <mxGeometry x="720" y="190" width="90" height="40" as="geometry" />
        </mxCell>
        <mxCell id="u5e5_SLm2BwDeto53vte-37" value="LOGGING" style="rounded=0;whiteSpace=wrap;html=1;" vertex="1" parent="1">
          <mxGeometry x="590" y="230" width="120" height="60" as="geometry" />
        </mxCell>
        <mxCell id="u5e5_SLm2BwDeto53vte-38" value="CONSOLE" style="rounded=0;whiteSpace=wrap;html=1;" vertex="1" parent="1">
          <mxGeometry x="590" y="160" width="120" height="60" as="geometry" />
        </mxCell>
        <mxCell id="u5e5_SLm2BwDeto53vte-39" value="MAIN LOOP" style="whiteSpace=wrap;html=1;aspect=fixed;" vertex="1" parent="1">
          <mxGeometry x="480" y="330" width="120" height="120" as="geometry" />
        </mxCell>
      </root>
    </mxGraphModel>
  </diagram>
</mxfile>
